PathFileType	4	(X/Y/Z)	Trial10_KneeL_markers_cropped.trc
DataRate	CameraRate	NumFrames	NumMarkers	Units	OrigDataRate	OrigDataStartFrame	OrigNumFrames
200	200	7	27	m	200	12	101
Frame#	Time	R_ASIS			L_ASIS			Sacral			L_Thigh_Superior			L_Thigh_Posterior			L_Thigh_Inferior			L_Thigh_Lateral			L_Shank_Posterior			L_Shank_Superior			L_Shank_Lateral			L_Shank_Inferior			L_Midfoot_Superior			L_Heel			L_Midfoot_Lateral			L_Toe			R_Thigh_Posterior			R_Thigh_Superior			R_Thigh_Lateral			R_Thigh_Inferior			R_Shank_Posterior			R_Shank_Superior			R_Shank_Lateral			R_Shank_Inferior			R_Midfoot_Superior			R_Heel			R_Midfoot_Lateral			R_Toe
		X1	Y1	Z1	X2	Y2	Z2	X3	Y3	Z3	X4	Y4	Z4	X5	Y5	Z5	X6	Y6	Z6	X7	Y7	Z7	X8	Y8	Z8	X9	Y9	Z9	X10	Y10	Z10	X11	Y11	Z11	X12	Y12	Z12	X13	Y13	Z13	X14	Y14	Z14	X15	Y15	Z15	X16	Y16	Z16	X17	Y17	Z17	X18	Y18	Z18	X19	Y19	Z19	X20	Y20	Z20	X21	Y21	Z21	X22	Y22	Z22	X23	Y23	Z23	X24	Y24	Z24	X25	Y25	Z25	X26	Y26	Z26	X27	Y27	Z27

13	   0.060	    1.15086601856114	    0.97148240977311	    0.66727884588361	    1.09898884055570	    0.99482127941442	    0.41845005443800	    0.93399482877064	    1.03194268863737	    0.59478949093921	    1.10920484540709	    0.78275338789722	    0.31942555750965	    1.03973393086244	    0.75546245068013	    0.33072785172482	    1.13972737360798	    0.69295907307129	    0.31363338968360	    1.06434495507050	    0.66887827988699	    0.32490449274072	    1.04338427813105	    0.44108522945919	    0.29744717917838	    1.10725957133516	    0.40157010955616	    0.28629170293814	    1.01655207790810	    0.37610887926586	    0.28579488229471	    1.07741839804010	    0.35174513463632	    0.27875672222441	    1.07357144835321	    0.12568880856705	    0.31008462358004	    0.90317764604457	    0.10363754143664	    0.36468924482776	    0.98273006637278	    0.08104420177163	    0.27668243671981	    1.18195843588848	    0.05715989072031	    0.27570484385347	    1.06824705840776	    0.75275337903476	    0.72014999378613	    1.14148615083102	    0.75353606567284	    0.70186472753230	    1.07063917635886	    0.65434092393930	    0.70378867702583	    1.14045965131663	    0.65842707466412	    0.68990372505808	    1.00530417034563	    0.33805621882540	    0.66176779290306	    1.07927911895858	    0.32513493027595	    0.64551273379344	    0.99854454516676	    0.27014068398761	    0.64055985835648	    1.06944803133789	    0.26865217523511	    0.62704308414800	    1.09074698969460	    0.08695188978678	    0.53718056751894	    0.92013339131747	    0.04526745490788	    0.50476570643713	    1.01559445672330	    0.01367956354816	    0.57963430565790	    1.21460799938556	    0.04071168641173	    0.54752227325748
14	   0.065	    1.15091788873332	    0.97148401878321	    0.66748198132241	    1.09924323189878	    0.99485370292347	    0.41861363590876	    0.93412938827600	    1.03185954302496	    0.59473025139340	    1.11109556404042	    0.78350794280610	    0.31955043580151	    1.04178209315776	    0.75571414270501	    0.33050507673307	    1.14224958001732	    0.69395880660462	    0.31347848599501	    1.06699885444557	    0.66931584604973	    0.32439739051718	    1.04413546082724	    0.44502689760358	    0.29747843366517	    1.10629338226974	    0.40324899212637	    0.28656257348361	    1.01492648294172	    0.38101511272073	    0.28616608482337	    1.07487241494739	    0.35447566886278	    0.27907846750004	    1.06227537183239	    0.12890888661186	    0.31158716201348	    0.89126982100978	    0.11377677272152	    0.36637943987417	    0.96979358978745	    0.08768013839648	    0.27841069323511	    1.16791235285593	    0.05609883756705	    0.27741171142881	    1.06822733533938	    0.75272472302452	    0.72020418352786	    1.14147739173881	    0.75349681944400	    0.70197566410227	    1.07059910298851	    0.65432761950438	    0.70380925823346	    1.14041731185753	    0.65839571365458	    0.68998225119252	    1.00528354673317	    0.33803783458331	    0.66176854533464	    1.07926339643192	    0.32512957135011	    0.64551888421427	    0.99850888713283	    0.27013153655892	    0.64052781686527	    1.06940973640131	    0.26863423195739	    0.62701646113144	    1.09063767704729	    0.08690232883482	    0.53720079866830	    0.91997189895405	    0.04530225460559	    0.50479467269224	    1.01560455427963	    0.01367015311031	    0.57966441890787	    1.21463149952039	    0.04066347580504	    0.54750230696885
15	   0.070	    1.15097669476276	    0.97150131588296	    0.66767821573074	    1.09956385539370	    0.99494241782200	    0.41875025906410	    0.93426521435236	    1.03182785788725	    0.59466094713918	    1.11297527108603	    0.78427247637187	    0.31953281414914	    1.04380283682318	    0.75602880349169	    0.33023822363043	    1.14470356229618	    0.69492653618462	    0.31328566498926	    1.06957548795183	    0.66981200824589	    0.32390873183444	    1.04485325402058	    0.44917560853735	    0.29747760923777	    1.10526848567882	    0.40499179431645	    0.28684751850320	    1.01321132964056	    0.38630576542341	    0.28648102917310	    1.07210315455802	    0.35736466340672	    0.27953078236280	    1.05037400421991	    0.13278942373666	    0.31319162928064	    0.87892778153828	    0.12490760082700	    0.36809844762961	    0.95631390991009	    0.09519010271596	    0.28021884615822	    1.15296642473972	    0.05555037581468	    0.27937928755642	    1.06820411204745	    0.75271855301524	    0.72027739207859	    1.14146997609824	    0.75349033344278	    0.70208856717739	    1.07054489617807	    0.65433079928752	    0.70386398702979	    1.14037304712815	    0.65837225987443	    0.69008228036007	    1.00523245948826	    0.33804204629384	    0.66179904000427	    1.07922316724898	    0.32513879997764	    0.64554955249785	    0.99845802582520	    0.27013170852587	    0.64053884083101	    1.06936012417222	    0.26864004042399	    0.62703302642695	    1.09056342007948	    0.08684144347790	    0.53722547064222	    0.91984627606050	    0.04527877407072	    0.50476790767640	    1.01561342232982	    0.01364481957726	    0.57970008592637	    1.21465800179572	    0.04060869839321	    0.54746201576491
16	   0.075	    1.15101947968650	    0.97151085522550	    0.66791299710720	    1.09995703625417	    0.99503370063132	    0.41889405683274	    0.93440153784846	    1.03183454551767	    0.59454337018643	    1.11477374936827	    0.78499966421405	    0.31953118241134	    1.04571358710732	    0.75638399460678	    0.32996318523755	    1.14698286462556	    0.69583362717647	    0.31308311937729	    1.07194096710087	    0.67032326183012	    0.32341934152737	    1.04532079542969	    0.45341538002723	    0.29757320291081	    1.10393081229166	    0.40684404516071	    0.28707999129050	    1.01121061527218	    0.39182442456787	    0.28686414224313	    1.06881017859284	    0.36036956882139	    0.28013549590833	    1.03805334058458	    0.13727164772084	    0.31474868161920	    0.86653493716899	    0.13671541507954	    0.36995639737938	    0.94247611086958	    0.10343633179434	    0.28207139393851	    1.13732894063874	    0.05567743141530	    0.28117714943925	    1.06812380196267	    0.75272567986901	    0.72035631842237	    1.14142124862487	    0.75348226992380	    0.70221704514789	    1.07044245267511	    0.65434389861714	    0.70391747068655	    1.14028324627883	    0.65835203307735	    0.69020050707809	    1.00511573014506	    0.33806732577224	    0.66179225429853	    1.07912503133513	    0.32514671749258	    0.64558263228048	    0.99835509764330	    0.27014776947539	    0.64051369397785	    1.06926383658729	    0.26865053726239	    0.62705168495264	    1.09054840146913	    0.08678721504305	    0.53720835145098	    0.91988717219900	    0.04523458132100	    0.50474884946755	    1.01561436462072	    0.01363897948350	    0.57969960072630	    1.21468666327494	    0.04055549732666	    0.54740726125573
17	   0.080	    1.15106072782106	    0.97150585076254	    0.66820926128980	    1.10042960065182	    0.99508736578817	    0.41907297146856	    0.93451060894225	    1.03184268149948	    0.59436385296547	    1.11641801242431	    0.78566579672138	    0.31961910860321	    1.04744094522950	    0.75676100387636	    0.32962709260472	    1.14902083928998	    0.69667839468991	    0.31290020312714	    1.07402607006799	    0.67082856729491	    0.32284463275056	    1.04543871809657	    0.45771475689916	    0.29781645082552	    1.10211014148235	    0.40886013756026	    0.28724281889395	    1.00883649001551	    0.39751234187605	    0.28741950634585	    1.06507933603751	    0.36372269755169	    0.28069761646108	    1.02543696505605	    0.14231515158005	    0.31622213958278	    0.85428347112017	    0.14901255202828	    0.37204944744719	    0.92844965940793	    0.11235762534549	    0.28397354687834	    1.12118553164133	    0.05663854497398	    0.28259031788188	    1.06797550842233	    0.75273119903846	    0.72041383917607	    1.14131401710587	    0.75342164531640	    0.70239962949726	    1.07027143615251	    0.65434105357543	    0.70394326182605	    1.14012922944202	    0.65831651699302	    0.69034594902276	    1.00494466584341	    0.33808959204320	    0.66172452505071	    1.07897814341030	    0.32515135405360	    0.64558811684861	    0.99820696367956	    0.27017045169956	    0.64043308329321	    1.06911917919871	    0.26865314220190	    0.62703046472713	    1.09055982914090	    0.08679438435335	    0.53719869604610	    0.92012060023194	    0.04519250959324	    0.50483900329276	    1.01560913657559	    0.01365972226076	    0.57966348072312	    1.21472180275452	    0.04051218086666	    0.54733334731222
18	   0.085	    1.15111611352873	    0.97150104694555	    0.66852769382305	    1.10093153557793	    0.99508722910316	    0.41928074493426	    0.93458849052189	    1.03182277869045	    0.59416331111328	    1.11790803168462	    0.78628351833638	    0.31972032658154	    1.04896132605218	    0.75711603081047	    0.32925758646034	    1.15080296727446	    0.69740911516515	    0.31275850527552	    1.07583018386367	    0.67129974088999	    0.32220209534724	    1.04528569541562	    0.46205809705340	    0.29808307798259	    1.09987794803799	    0.41098041161877	    0.28735913008992	    1.00619961449227	    0.40332300963527	    0.28808672337344	    1.06102366058249	    0.36729241144100	    0.28122336149268	    1.01253365243191	    0.14784858040081	    0.31773919858781	    0.84217433806130	    0.16179799896101	    0.37440272968966	    0.91432139349255	    0.12192612950420	    0.28597669954985	    1.10460719982609	    0.05835919568659	    0.28376984524050	    1.06782286515831	    0.75273306694285	    0.72045341329555	    1.14120216450093	    0.75336238659664	    0.70259774127344	    1.07008141215493	    0.65433743371409	    0.70395772129808	    1.13996603422891	    0.65827450110967	    0.69050056466042	    1.00474860380356	    0.33809192039192	    0.66165505328466	    1.07879822570536	    0.32515341382042	    0.64559775607427	    0.99803426854556	    0.27019396994536	    0.64035656673424	    1.06894079829424	    0.26865874919057	    0.62700672225206	    1.09055555177705	    0.08681840862962	    0.53719700171559	    0.92034565582219	    0.04520554362147	    0.50498230204866	    1.01561371178398	    0.01367834269926	    0.57965271504522	    1.21472844947075	    0.04049947905339	    0.54732200342272
19	   0.090	    1.15118155221831	    0.97150049862101	    0.66883612389946	    1.10139601218940	    0.99503325347811	    0.41946450486654	    0.93471850892951	    1.03180167846300	    0.59397100175227	    1.11925966564534	    0.78682593674357	    0.31976530215913	    1.05027622623971	    0.75741314962764	    0.32891544587473	    1.15239404326704	    0.69801617759252	    0.31259388206050	    1.07737563308807	    0.67169587035865	    0.32159330844538	    1.04497856403271	    0.46639034850432	    0.29826621881736	    1.09738068525527	    0.41310153647088	    0.28751887201176	    1.00345465211491	    0.40919066245898	    0.28872651955720	    1.05677735779969	    0.37097051717759	    0.28174417621731	    0.99943216464035	    0.15392615114080	    0.31940763649305	    0.83008802935017	    0.17515809748938	    0.37692575809982	    0.90018080772393	    0.13209926984370	    0.28810195700412	    1.08765957599778	    0.06069138900336	    0.28522110670158	    1.06773745115511	    0.75273345684729	    0.72051600402639	    1.14114482484439	    0.75332475630550	    0.70276690375695	    1.06995714586039	    0.65434249145287	    0.70399366945552	    1.13985937926236	    0.65823827144130	    0.69064390647823	    1.00459546853543	    0.33809007329664	    0.66163684956745	    1.07864527382535	    0.32514817777317	    0.64563573007087	    0.99788265865938	    0.27019965265948	    0.64032298045978	    1.06878189771915	    0.26866193641621	    0.62701842264876	    1.09053569066546	    0.08683285219166	    0.53720291335565	    0.92029903540241	    0.04523541880652	    0.50503156130460	    1.01562384273314	    0.01368498951669	    0.57965686542920	    1.21471717552573	    0.04051639543421	    0.54734774423094
